<?xml version="1.0" encoding="UTF-8"?>
<svg width="260px" height="185px" viewBox="0 0 260 185" version="1.1" xmlns="http://www.w3.org/2000/svg" xmlns:xlink="http://www.w3.org/1999/xlink">
    <!-- Generator: Sketch 55.2 (78181) - https://sketchapp.com -->
    <title>Untitled</title>
    <desc>Created with Sketch.</desc>
    <g id="Page-1" stroke="none" stroke-width="1" fill="none" fill-rule="evenodd" opacity="0.87000002">
        <g id="backgroung" fill="#FFFFFF">
            <path d="M1.26927462,0.26450323 C1.00351297,0.26450323 0.748407216,0.368818129 0.561797701,0.557893977 C0.375188187,0.746969825 0.272883414,1.00331728 0.278079026,1.26881449 L0.426087941,8.79562248 C0.436524481,9.32128487 0.858285299,9.746102 1.38427806,9.76075617 L9.29218289,9.97666181 L9.35870944,11.4338957 L5.76781741,11.2921911 C5.57654237,11.2845523 5.39039779,11.3550496 5.25224592,11.48745 C5.11409405,11.6198504 5.03584199,11.8027426 5.0355083,11.9940131 L5.0324143,15.564442 L1.48277876,15.6082412 C0.943806707,15.6149055 0.510107371,16.0528398 0.509117325,16.5914103 L0.264669809,167.611419 C0.264669809,167.872822 0.368028624,168.123633 0.552875032,168.308619 C0.737721441,168.493604 0.988575566,168.597591 1.25019332,168.597681 L4.89884501,168.597681 L4.89575186,172.010947 C4.89560248,172.201095 4.9724825,172.383208 5.10888083,172.515805 C5.24527915,172.648403 5.42958172,172.720195 5.61980963,172.714829 L9.40925036,172.606617 L9.35200666,174.207618 L1.6844227,174.197825 C1.14360636,174.196846 0.702962518,174.631381 0.6968371,175.171721 L0.605040624,183.743016 C0.6021021,184.00602 0.704553193,184.259276 0.889572425,184.446369 C1.07459166,184.633463 1.32681111,184.738854 1.59004767,184.739065 L9.99561332,184.746798 C10.526826,184.747513 10.9630905,184.327556 10.9821674,183.79712 L11.2544627,176.179621 L13.5638144,176.182725 L13.3260718,179.29094 C13.3110607,179.486292 13.3782504,179.679052 13.5114681,179.822821 C13.6446859,179.96659 13.8318658,180.048347 14.0279537,180.048413 L17.5316907,180.047849 L17.5316907,183.830575 C17.5318775,184.374341 17.9730016,184.815104 18.5172135,184.815291 L242.978664,184.803466 C243.517684,184.803331 243.956668,184.370673 243.964184,183.832147 L244.017304,180.003563 L246.753146,180.002998 C246.940811,180.003076 247.120743,179.928305 247.253006,179.795281 C247.385269,179.662257 247.458919,179.481985 247.45761,179.294479 L247.432351,175.813195 L249.790696,175.824004 L249.653,183.908356 C249.648388,184.172513 249.75017,184.427449 249.935483,184.615905 C250.120797,184.804361 250.374108,184.910589 250.638522,184.910589 L258.179241,184.910589 C258.442025,184.910589 258.693955,184.805868 258.879093,184.619528 C259.06423,184.433189 259.167251,184.180707 259.16528,183.918146 L259.096692,174.869178 C259.092557,174.329834 258.655089,173.894105 258.115292,173.891679 L251.795778,173.86285 L251.829297,171.889809 L254.083468,171.976381 C254.274481,171.983589 254.460219,171.9129 254.59803,171.780548 C254.735841,171.648195 254.813882,171.465551 254.814232,171.274559 L254.818352,168.093689 L258.132826,168.251363 C258.401851,168.264081 258.664371,168.166272 258.859383,167.980666 C259.054396,167.795059 259.164922,167.537815 259.165277,167.268711 L259.266364,16.4810964 C259.266364,15.9509048 258.847204,15.5154624 258.31694,15.4958663 L255.01639,15.3752891 L255.020511,12.3577642 C255.021261,11.9799497 254.723248,11.6689846 254.345446,11.6533601 L250.058858,11.4797082 L250.147047,9.5886023 L258.201929,9.81738998 C258.470591,9.82505084 258.730736,9.7227802 258.922144,9.53425269 C259.113552,9.34572518 259.219628,9.08728644 259.215815,8.81876244 L259.108542,1.34610765 C259.100802,0.81057823 258.666248,0.37935599 258.130238,0.375305579 L249.553457,0.312955747 C249.024086,0.309248499 248.586284,0.723944222 248.561745,1.25232526 L248.267791,7.56459989 L246.215778,7.50637236 L246.289523,4.48627111 C246.294183,4.29672948 246.222088,4.11333051 246.089572,3.97762467 C245.957056,3.84191884 245.775336,3.76539259 245.585582,3.76538354 L243.357195,3.76538354 L243.363375,1.29303302 C243.364107,1.03127514 243.260541,0.779989886 243.07554,0.59465587 C242.89054,0.409321853 242.639321,0.305181352 242.377347,0.305226442 L18.5172124,0.312955747 C17.9894883,0.313195895 17.5555395,0.728618622 17.5327214,1.255417 L17.4228748,3.77517411 L14.4786835,3.77517411 C14.0907639,3.77502054 13.7757768,4.08836703 13.7742229,4.47596549 L13.759783,8.12832467 L11.1781363,8.05773017 L10.8687098,1.25335585 C10.8449204,0.72935319 10.4143395,0.315890237 9.88937584,0.312955747 L1.26927462,0.26450323 Z M2.26872157,2.24013184 L8.94201538,2.27774783 L9.20193358,8.00362478 L2.37805217,7.81709085 L2.26872157,2.24013184 Z M241.388728,2.27517142 L241.385116,3.76538354 L19.3959836,3.77517142 L19.460963,2.28290041 L241.388728,2.27517142 Z M250.486893,2.2901148 L257.151418,2.33855182 L257.229292,7.81863686 L250.238834,7.62025101 L250.486893,2.2901148 Z M241.381506,5.17211882 L241.373266,8.37978524 C241.371848,8.91426141 241.797258,9.35235595 242.331972,9.36707648 L244.760454,9.43612497 L244.698052,11.977524 C244.688863,12.3614973 244.989548,12.6818882 245.373633,12.6973812 L248.023869,12.805076 L247.870701,16.0895202 C247.858503,16.3521888 247.951916,16.6088277 248.130144,16.8022973 C248.308371,16.9957669 248.556616,17.1100062 248.819609,17.1195802 L253.606422,17.2947778 L253.413032,166.055251 L250.974237,165.939312 C250.707959,165.926683 250.447912,166.022338 250.253391,166.204467 C250.058869,166.386596 249.946456,166.639672 249.941784,166.90599 L249.882475,170.406855 L246.720141,170.285246 C246.527961,170.277988 246.341172,170.349581 246.203154,170.483399 C246.065135,170.617217 245.987897,170.801614 245.989377,170.993768 L246.010007,173.836609 L243.108622,173.823204 C242.567597,173.820795 242.125714,174.254495 242.118456,174.795033 L242.065339,178.596829 L19.5032486,178.64063 L19.5032486,175.204168 C19.5033458,174.660402 19.0624527,174.21941 18.5182414,174.218938 L15.1269293,174.214818 L15.3115537,171.807397 C15.326775,171.608505 15.2567909,171.412504 15.1190108,171.268152 C14.9812307,171.123801 14.7886048,171.044666 14.5890513,171.050435 L11.43445,171.140611 L11.5597676,167.647992 C11.5693356,167.380752 11.4697545,167.121109 11.2838962,166.928697 C11.0980379,166.736286 10.8418758,166.627643 10.5742451,166.627722 L6.30879762,166.627722 L6.43927263,17.516867 L10.5866163,17.4648229 C10.8536802,17.4615144 11.1079725,17.3500796 11.2913076,17.1560164 C11.4746427,16.9619532 11.5713301,16.7018702 11.5592464,16.435278 L11.3998919,12.9230771 L14.4193767,13.0426236 C14.6103841,13.0502528 14.796288,12.9799642 14.9343923,12.847901 C15.0724965,12.7158377 15.1509323,12.5333493 15.1516855,12.3423476 L15.1604514,10.1374314 L18.1448682,10.2188471 C18.682947,10.2335172 19.1333363,9.8142324 19.1566921,9.27690112 L19.3346126,5.18190967 L241.381506,5.17211882 Z M243.353585,5.17211882 L244.864617,5.17211882 L244.808404,7.4666953 L243.347912,7.42547251 L243.353585,5.17211882 Z M15.1800497,5.18190911 L17.362021,5.18190911 L17.2294835,8.22313751 L15.1681885,8.16697134 L15.1800497,5.18190911 Z M246.167818,9.47580147 L248.175992,9.5329986 L248.088839,11.3998859 L246.12295,11.3200165 L246.167818,9.47580147 Z M11.2683856,10.0312817 L13.7520473,10.0987847 L13.7463746,11.607547 L11.3354278,11.5122186 L11.2683856,10.0312817 Z M6.44339815,12.7272671 L9.42265789,12.8452681 L9.54384976,15.508275 L6.44081949,15.5469214 L6.44339815,12.7272671 Z M249.99336,12.8849452 L253.612098,13.0323174 L253.609021,15.3238019 L249.886107,15.1872506 L249.99336,12.8849452 Z M255.0138,17.3463063 L257.294271,17.4297831 L257.194223,166.235086 L254.820923,166.12224 L255.0138,17.3463063 Z M5.03086688,17.5343865 L4.90039244,166.627736 L2.23777892,166.627736 L2.47861574,17.5663346 L5.03086688,17.5343865 Z M251.89633,167.955115 L253.410456,168.027256 L253.407379,170.542376 L251.853546,170.482604 L251.89633,167.955115 Z M6.30725076,168.597681 L9.55313233,168.597681 L9.45978902,171.197306 L6.3046721,171.287482 L6.30725076,168.597681 Z M247.402943,171.71981 L249.858243,171.814109 L249.82369,173.854132 L247.418415,173.843323 L247.402943,171.71981 Z M13.8474537,172.479343 L13.7149162,174.212769 L11.3245981,174.209665 L11.3839048,172.549924 L13.8474537,172.479343 Z M244.076097,175.798313 L246.024452,175.807062 L246.044574,178.595796 L244.036913,178.59636 L244.076097,175.798313 Z M251.761727,175.833351 L257.13234,175.857594 L257.185971,182.940737 L251.641568,182.940737 L251.761727,175.833351 Z M2.658083,176.1688 L9.28186879,176.177549 L9.04567334,182.775809 L2.58691497,182.770136 L2.658083,176.1688 Z M14.9758284,176.184266 L17.5316896,176.187879 L17.5316896,178.641166 L14.787594,178.64173 L14.9758284,176.184266 Z M242.045745,180.00409 L242.00655,182.833535 L19.5032509,182.845924 L19.5032509,180.047397 L242.045745,180.00409 Z" id="path5307"></path>
        </g>
    </g>
</svg>